<mxfile host="65bd71144e">
    <diagram id="LWL2NuPPTtvhrGXF7olF" name="Design">
        <mxGraphModel dx="892" dy="1473" grid="1" gridSize="10" guides="1" tooltips="1" connect="1" arrows="1" fold="1" page="1" pageScale="1" pageWidth="850" pageHeight="1100" math="0" shadow="0">
            <root>
                <mxCell id="0"/>
                <mxCell id="1" parent="0"/>
                <mxCell id="181" value="" style="rounded=0;whiteSpace=wrap;html=1;fontSize=16;fillColor=#1ba1e2;strokeColor=#006EAF;fontColor=#ffffff;" parent="1" vertex="1">
                    <mxGeometry x="920" y="360" width="490" height="500" as="geometry"/>
                </mxCell>
                <mxCell id="94" value="" style="group" parent="1" vertex="1" connectable="0">
                    <mxGeometry x="90" y="-140" width="300" height="120" as="geometry"/>
                </mxCell>
                <mxCell id="85" value="" style="rounded=0;whiteSpace=wrap;html=1;fontSize=10;" parent="94" vertex="1">
                    <mxGeometry width="300" height="120" as="geometry"/>
                </mxCell>
                <mxCell id="86" value="Initial Screen" style="text;html=1;strokeColor=none;fillColor=none;align=center;verticalAlign=middle;whiteSpace=wrap;rounded=0;fontSize=10;" parent="94" vertex="1">
                    <mxGeometry x="70" width="170" height="30" as="geometry"/>
                </mxCell>
                <mxCell id="87" value="Start the game" style="rounded=0;whiteSpace=wrap;html=1;fontSize=10;fillColor=#60a917;fontColor=#ffffff;strokeColor=#2D7600;" parent="94" vertex="1">
                    <mxGeometry x="25" y="50" width="110" height="40" as="geometry"/>
                </mxCell>
                <mxCell id="88" value="Join Game" style="rounded=0;whiteSpace=wrap;html=1;fontSize=10;fillColor=#1ba1e2;fontColor=#ffffff;strokeColor=#006EAF;" parent="94" vertex="1">
                    <mxGeometry x="170" y="50" width="110" height="40" as="geometry"/>
                </mxCell>
                <mxCell id="101" value="" style="group" parent="1" vertex="1" connectable="0">
                    <mxGeometry x="470" y="-140" width="300" height="120" as="geometry"/>
                </mxCell>
                <mxCell id="102" value="" style="rounded=0;whiteSpace=wrap;html=1;fontSize=10;" parent="101" vertex="1">
                    <mxGeometry width="300" height="120" as="geometry"/>
                </mxCell>
                <mxCell id="103" value="Initial Screen" style="text;html=1;strokeColor=none;fillColor=none;align=center;verticalAlign=middle;whiteSpace=wrap;rounded=0;fontSize=10;" parent="101" vertex="1">
                    <mxGeometry x="70" width="170" height="30" as="geometry"/>
                </mxCell>
                <mxCell id="104" value="Start the game" style="rounded=0;whiteSpace=wrap;html=1;fontSize=10;fillColor=#60a917;fontColor=#ffffff;strokeColor=#2D7600;" parent="101" vertex="1">
                    <mxGeometry x="25" y="50" width="110" height="40" as="geometry"/>
                </mxCell>
                <mxCell id="105" value="Join Game" style="rounded=0;whiteSpace=wrap;html=1;fontSize=10;fillColor=#1ba1e2;fontColor=#ffffff;strokeColor=#006EAF;" parent="101" vertex="1">
                    <mxGeometry x="170" y="50" width="110" height="40" as="geometry"/>
                </mxCell>
                <mxCell id="106" value="" style="rounded=0;whiteSpace=wrap;html=1;fontSize=10;" parent="101" vertex="1">
                    <mxGeometry x="40" y="20" width="230" height="90" as="geometry"/>
                </mxCell>
                <mxCell id="107" value="" style="rounded=0;whiteSpace=wrap;html=1;fontSize=10;" parent="101" vertex="1">
                    <mxGeometry x="70" y="47.5" width="170" height="25" as="geometry"/>
                </mxCell>
                <mxCell id="108" value="Enter Session Id" style="text;html=1;strokeColor=none;fillColor=none;align=center;verticalAlign=middle;whiteSpace=wrap;rounded=0;fontSize=10;" parent="101" vertex="1">
                    <mxGeometry x="85" y="20" width="140" height="30" as="geometry"/>
                </mxCell>
                <mxCell id="114" value="Enter" style="rounded=0;whiteSpace=wrap;html=1;fontSize=10;fillColor=#60a917;fontColor=#ffffff;strokeColor=#2D7600;" parent="101" vertex="1">
                    <mxGeometry x="70" y="80" width="60" height="20" as="geometry"/>
                </mxCell>
                <mxCell id="116" value="Cancel" style="rounded=0;whiteSpace=wrap;html=1;fontSize=10;fillColor=#1ba1e2;fontColor=#ffffff;strokeColor=#006EAF;" parent="101" vertex="1">
                    <mxGeometry x="170" y="80" width="55" height="20" as="geometry"/>
                </mxCell>
                <mxCell id="109" value="1.2" style="edgeStyle=none;html=1;entryX=0;entryY=0.583;entryDx=0;entryDy=0;entryPerimeter=0;fontSize=10;" parent="1" source="88" target="102" edge="1">
                    <mxGeometry relative="1" as="geometry"/>
                </mxCell>
                <mxCell id="110" style="edgeStyle=none;html=1;fontSize=10;entryX=0.522;entryY=-0.003;entryDx=0;entryDy=0;entryPerimeter=0;" parent="1" source="87" target="111" edge="1">
                    <mxGeometry relative="1" as="geometry">
                        <mxPoint x="420" y="140" as="targetPoint"/>
                    </mxGeometry>
                </mxCell>
                <mxCell id="120" value="1.1" style="edgeLabel;html=1;align=center;verticalAlign=middle;resizable=0;points=[];fontSize=10;" parent="110" vertex="1" connectable="0">
                    <mxGeometry x="0.0761" y="-3" relative="1" as="geometry">
                        <mxPoint as="offset"/>
                    </mxGeometry>
                </mxCell>
                <mxCell id="112" value="" style="group;fillColor=#1ba1e2;fontColor=#ffffff;strokeColor=#006EAF;" parent="1" vertex="1" connectable="0">
                    <mxGeometry y="90" width="820" height="610" as="geometry"/>
                </mxCell>
                <mxCell id="111" value="" style="rounded=0;whiteSpace=wrap;html=1;fontSize=10;" parent="112" vertex="1">
                    <mxGeometry width="820" height="610.0000000000001" as="geometry"/>
                </mxCell>
                <mxCell id="34" value="" style="rounded=0;whiteSpace=wrap;html=1;fontSize=10;" parent="112" vertex="1">
                    <mxGeometry x="520" y="32.10526315789473" width="280" height="556.4912280701755" as="geometry"/>
                </mxCell>
                <mxCell id="32" value="" style="group" parent="112" vertex="1" connectable="0">
                    <mxGeometry x="20" y="32.10526315789473" width="360" height="342.4561403508772" as="geometry"/>
                </mxCell>
                <mxCell id="31" value="" style="rounded=0;whiteSpace=wrap;html=1;fontSize=24;" parent="32" vertex="1">
                    <mxGeometry width="360" height="342.4561403508772" as="geometry"/>
                </mxCell>
                <mxCell id="10" value="Player 1" style="shape=umlActor;verticalLabelPosition=bottom;verticalAlign=top;html=1;outlineConnect=0;" parent="32" vertex="1">
                    <mxGeometry x="130" y="10.701754385964913" width="20" height="42.80701754385965" as="geometry"/>
                </mxCell>
                <mxCell id="11" value="Player 1" style="shape=umlActor;verticalLabelPosition=bottom;verticalAlign=top;html=1;outlineConnect=0;" parent="32" vertex="1">
                    <mxGeometry x="305" y="181.92982456140354" width="20" height="42.80701754385965" as="geometry"/>
                </mxCell>
                <mxCell id="12" value="Player 1" style="shape=umlActor;verticalLabelPosition=bottom;verticalAlign=top;html=1;outlineConnect=0;" parent="32" vertex="1">
                    <mxGeometry x="130" y="181.92982456140354" width="20" height="42.80701754385965" as="geometry"/>
                </mxCell>
                <mxCell id="13" value="Player 1" style="shape=umlActor;verticalLabelPosition=bottom;verticalAlign=top;html=1;outlineConnect=0;" parent="32" vertex="1">
                    <mxGeometry x="220" y="181.92982456140354" width="20" height="42.80701754385965" as="geometry"/>
                </mxCell>
                <mxCell id="14" value="Player 1" style="shape=umlActor;verticalLabelPosition=bottom;verticalAlign=top;html=1;outlineConnect=0;" parent="32" vertex="1">
                    <mxGeometry x="40" y="10.701754385964913" width="20" height="42.80701754385965" as="geometry"/>
                </mxCell>
                <mxCell id="15" value="Player 1" style="shape=umlActor;verticalLabelPosition=bottom;verticalAlign=top;html=1;outlineConnect=0;" parent="32" vertex="1">
                    <mxGeometry x="220" y="10.701754385964913" width="20" height="42.80701754385965" as="geometry"/>
                </mxCell>
                <mxCell id="16" value="Player 1" style="shape=umlActor;verticalLabelPosition=bottom;verticalAlign=top;html=1;outlineConnect=0;" parent="32" vertex="1">
                    <mxGeometry x="305" y="10.701754385964913" width="20" height="42.80701754385965" as="geometry"/>
                </mxCell>
                <mxCell id="18" value="Player 1" style="shape=umlActor;verticalLabelPosition=bottom;verticalAlign=top;html=1;outlineConnect=0;" parent="32" vertex="1">
                    <mxGeometry x="40" y="181.92982456140354" width="20" height="42.80701754385965" as="geometry"/>
                </mxCell>
                <mxCell id="20" value="" style="endArrow=none;html=1;" parent="32" edge="1">
                    <mxGeometry width="50" height="50" relative="1" as="geometry">
                        <mxPoint x="30" y="149.8245614035088" as="sourcePoint"/>
                        <mxPoint x="330" y="149.8245614035088" as="targetPoint"/>
                    </mxGeometry>
                </mxCell>
                <mxCell id="22" value="&lt;font style=&quot;font-size: 24px&quot;&gt;3&lt;/font&gt;" style="rounded=0;whiteSpace=wrap;html=1;" parent="32" vertex="1">
                    <mxGeometry x="30" y="85.6140350877193" width="40" height="53.50877192982456" as="geometry"/>
                </mxCell>
                <mxCell id="23" value="&lt;font style=&quot;font-size: 24px&quot;&gt;3&lt;/font&gt;" style="rounded=0;whiteSpace=wrap;html=1;" parent="32" vertex="1">
                    <mxGeometry x="295" y="85.6140350877193" width="40" height="53.50877192982456" as="geometry"/>
                </mxCell>
                <mxCell id="24" value="&lt;font style=&quot;font-size: 24px&quot;&gt;3&lt;/font&gt;" style="rounded=0;whiteSpace=wrap;html=1;" parent="32" vertex="1">
                    <mxGeometry x="210" y="85.6140350877193" width="40" height="53.50877192982456" as="geometry"/>
                </mxCell>
                <mxCell id="25" value="&lt;font style=&quot;font-size: 24px&quot;&gt;3&lt;/font&gt;" style="rounded=0;whiteSpace=wrap;html=1;" parent="32" vertex="1">
                    <mxGeometry x="120" y="85.6140350877193" width="40" height="53.50877192982456" as="geometry"/>
                </mxCell>
                <mxCell id="26" value="&lt;font style=&quot;font-size: 24px&quot;&gt;3&lt;/font&gt;" style="rounded=0;whiteSpace=wrap;html=1;" parent="32" vertex="1">
                    <mxGeometry x="30" y="256.84210526315786" width="40" height="53.50877192982456" as="geometry"/>
                </mxCell>
                <mxCell id="27" value="&lt;font style=&quot;font-size: 24px&quot;&gt;3&lt;/font&gt;" style="rounded=0;whiteSpace=wrap;html=1;" parent="32" vertex="1">
                    <mxGeometry x="120" y="256.84210526315786" width="40" height="53.50877192982456" as="geometry"/>
                </mxCell>
                <mxCell id="28" value="&lt;font style=&quot;font-size: 24px&quot;&gt;3&lt;/font&gt;" style="rounded=0;whiteSpace=wrap;html=1;" parent="32" vertex="1">
                    <mxGeometry x="210" y="256.84210526315786" width="40" height="53.50877192982456" as="geometry"/>
                </mxCell>
                <mxCell id="29" value="&lt;font style=&quot;font-size: 24px&quot;&gt;3&lt;/font&gt;" style="rounded=0;whiteSpace=wrap;html=1;" parent="32" vertex="1">
                    <mxGeometry x="295" y="256.84210526315786" width="40" height="53.50877192982456" as="geometry"/>
                </mxCell>
                <mxCell id="30" value="" style="endArrow=none;html=1;" parent="32" edge="1">
                    <mxGeometry width="50" height="50" relative="1" as="geometry">
                        <mxPoint x="30" y="321.05263157894734" as="sourcePoint"/>
                        <mxPoint x="330" y="321.05263157894734" as="targetPoint"/>
                    </mxGeometry>
                </mxCell>
                <mxCell id="33" value="&lt;font&gt;&lt;span style=&quot;font-size: 16px&quot;&gt;Total Point:&lt;/span&gt;&lt;br&gt;&lt;font style=&quot;font-size: 10px&quot;&gt;&lt;i&gt;&amp;lt;Number with the biggest amount of voters&amp;gt;&lt;/i&gt;&lt;/font&gt;&lt;br&gt;&lt;/font&gt;" style="rounded=0;whiteSpace=wrap;html=1;fontSize=24;" parent="112" vertex="1">
                    <mxGeometry x="390" y="181.92982456140354" width="120" height="331.7543859649123" as="geometry"/>
                </mxCell>
                <mxCell id="37" value="Controllers Panel" style="text;html=1;strokeColor=none;fillColor=none;align=center;verticalAlign=middle;whiteSpace=wrap;rounded=0;fontSize=10;" parent="112" vertex="1">
                    <mxGeometry x="590" y="42.80701754385965" width="140" height="21.403508771929825" as="geometry"/>
                </mxCell>
                <mxCell id="38" value="Start round" style="rounded=0;whiteSpace=wrap;html=1;fontSize=10;fillColor=#60a917;fontColor=#ffffff;strokeColor=#2D7600;" parent="112" vertex="1">
                    <mxGeometry x="540" y="85.6140350877193" width="110" height="42.80701754385965" as="geometry"/>
                </mxCell>
                <mxCell id="39" value="Finish round" style="rounded=0;whiteSpace=wrap;html=1;fontSize=10;fillColor=#a20025;fontColor=#ffffff;strokeColor=#6F0000;" parent="112" vertex="1">
                    <mxGeometry x="670" y="85.6140350877193" width="110" height="42.80701754385965" as="geometry"/>
                </mxCell>
                <mxCell id="40" value="Pause round" style="rounded=0;whiteSpace=wrap;html=1;fontSize=10;fillColor=#f0a30a;fontColor=#000000;strokeColor=#BD7000;" parent="112" vertex="1">
                    <mxGeometry x="605" y="139.12280701754386" width="110" height="42.80701754385965" as="geometry"/>
                </mxCell>
                <mxCell id="43" value="Configure the game settings" style="rounded=0;whiteSpace=wrap;html=1;fontSize=10;" parent="112" vertex="1">
                    <mxGeometry x="525" y="513.6826315789474" width="260" height="42.80701754385965" as="geometry"/>
                </mxCell>
                <mxCell id="45" value="Time counter" style="rounded=0;whiteSpace=wrap;html=1;fontSize=10;" parent="112" vertex="1">
                    <mxGeometry x="390" y="32.10526315789473" width="120" height="107.01754385964912" as="geometry"/>
                </mxCell>
                <mxCell id="46" value="" style="rounded=0;whiteSpace=wrap;html=1;fontSize=10;" parent="112" vertex="1">
                    <mxGeometry x="20" y="395.96491228070175" width="360" height="181.92982456140354" as="geometry"/>
                </mxCell>
                <mxCell id="67" value="&lt;font style=&quot;font-size: 24px&quot;&gt;3&lt;/font&gt;" style="rounded=0;whiteSpace=wrap;html=1;" parent="112" vertex="1">
                    <mxGeometry x="30" y="406.6666666666667" width="40" height="53.50877192982456" as="geometry"/>
                </mxCell>
                <mxCell id="73" value="&lt;font style=&quot;font-size: 24px&quot;&gt;3&lt;/font&gt;" style="rounded=0;whiteSpace=wrap;html=1;" parent="112" vertex="1">
                    <mxGeometry x="90" y="406.6666666666667" width="40" height="53.50877192982456" as="geometry"/>
                </mxCell>
                <mxCell id="74" value="&lt;font style=&quot;font-size: 24px&quot;&gt;3&lt;/font&gt;" style="rounded=0;whiteSpace=wrap;html=1;" parent="112" vertex="1">
                    <mxGeometry x="150" y="406.6666666666667" width="40" height="53.50877192982456" as="geometry"/>
                </mxCell>
                <mxCell id="75" value="&lt;font style=&quot;font-size: 24px&quot;&gt;3&lt;/font&gt;" style="rounded=0;whiteSpace=wrap;html=1;" parent="112" vertex="1">
                    <mxGeometry x="210" y="406.6666666666667" width="40" height="53.50877192982456" as="geometry"/>
                </mxCell>
                <mxCell id="76" value="&lt;font style=&quot;font-size: 24px&quot;&gt;3&lt;/font&gt;" style="rounded=0;whiteSpace=wrap;html=1;" parent="112" vertex="1">
                    <mxGeometry x="270" y="406.6666666666667" width="40" height="53.50877192982456" as="geometry"/>
                </mxCell>
                <mxCell id="77" value="&lt;font style=&quot;font-size: 24px&quot;&gt;3&lt;/font&gt;" style="rounded=0;whiteSpace=wrap;html=1;" parent="112" vertex="1">
                    <mxGeometry x="330" y="406.6666666666667" width="40" height="53.50877192982456" as="geometry"/>
                </mxCell>
                <mxCell id="78" value="&lt;font style=&quot;font-size: 24px&quot;&gt;3&lt;/font&gt;" style="rounded=0;whiteSpace=wrap;html=1;" parent="112" vertex="1">
                    <mxGeometry x="30" y="470.87719298245617" width="40" height="53.50877192982456" as="geometry"/>
                </mxCell>
                <mxCell id="79" value="&lt;font style=&quot;font-size: 24px&quot;&gt;3&lt;/font&gt;" style="rounded=0;whiteSpace=wrap;html=1;" parent="112" vertex="1">
                    <mxGeometry x="90" y="470.87719298245617" width="40" height="53.50877192982456" as="geometry"/>
                </mxCell>
                <mxCell id="80" value="&lt;font style=&quot;font-size: 24px&quot;&gt;3&lt;/font&gt;" style="rounded=0;whiteSpace=wrap;html=1;" parent="112" vertex="1">
                    <mxGeometry x="150" y="470.87719298245617" width="40" height="53.50877192982456" as="geometry"/>
                </mxCell>
                <mxCell id="81" value="&lt;font style=&quot;font-size: 24px&quot;&gt;3&lt;/font&gt;" style="rounded=0;whiteSpace=wrap;html=1;" parent="112" vertex="1">
                    <mxGeometry x="210" y="470.87719298245617" width="40" height="53.50877192982456" as="geometry"/>
                </mxCell>
                <mxCell id="82" value="&lt;font style=&quot;font-size: 24px&quot;&gt;3&lt;/font&gt;" style="rounded=0;whiteSpace=wrap;html=1;" parent="112" vertex="1">
                    <mxGeometry x="270" y="470.87719298245617" width="40" height="53.50877192982456" as="geometry"/>
                </mxCell>
                <mxCell id="83" value="&lt;font style=&quot;font-size: 24px&quot;&gt;3&lt;/font&gt;" style="rounded=0;whiteSpace=wrap;html=1;" parent="112" vertex="1">
                    <mxGeometry x="330" y="470.87719298245617" width="40" height="53.50877192982456" as="geometry"/>
                </mxCell>
                <mxCell id="84" value="Vote" style="rounded=0;whiteSpace=wrap;html=1;fontSize=10;" parent="112" vertex="1">
                    <mxGeometry x="160" y="535.0877192982456" width="80" height="32.10526315789473" as="geometry"/>
                </mxCell>
                <mxCell id="277" value="Task Name(URL)" style="text;html=1;strokeColor=none;fillColor=none;align=center;verticalAlign=middle;whiteSpace=wrap;rounded=0;fontSize=16;" parent="112" vertex="1">
                    <mxGeometry x="250" width="170" height="32.10526315789473" as="geometry"/>
                </mxCell>
                <mxCell id="280" value="Finish game" style="rounded=0;whiteSpace=wrap;html=1;fontSize=10;fillColor=#a20025;fontColor=#ffffff;strokeColor=#6F0000;" parent="112" vertex="1">
                    <mxGeometry x="605" y="465.5240350877193" width="110" height="42.80701754385965" as="geometry"/>
                </mxCell>
                <mxCell id="117" value="1.2.1" style="edgeStyle=none;html=1;entryX=0.599;entryY=0.002;entryDx=0;entryDy=0;entryPerimeter=0;fontSize=10;" parent="1" source="114" target="111" edge="1">
                    <mxGeometry relative="1" as="geometry"/>
                </mxCell>
                <mxCell id="119" value="1.2.2" style="edgeStyle=none;html=1;entryX=1;entryY=0.25;entryDx=0;entryDy=0;fontSize=10;" parent="1" source="116" target="85" edge="1">
                    <mxGeometry relative="1" as="geometry"/>
                </mxCell>
                <mxCell id="121" value="" style="rounded=0;whiteSpace=wrap;html=1;fontSize=10;" parent="1" vertex="1">
                    <mxGeometry x="950" y="410" width="420" height="420" as="geometry"/>
                </mxCell>
                <mxCell id="122" style="edgeStyle=none;html=1;fontSize=10;" parent="1" source="43" target="121" edge="1">
                    <mxGeometry relative="1" as="geometry"/>
                </mxCell>
                <mxCell id="167" value="Configurator" style="text;html=1;strokeColor=none;fillColor=none;align=center;verticalAlign=middle;whiteSpace=wrap;rounded=0;fontSize=10;" parent="1" vertex="1">
                    <mxGeometry x="1100" y="420" width="140" height="20" as="geometry"/>
                </mxCell>
                <mxCell id="170" value="Time Limit" style="rounded=0;whiteSpace=wrap;html=1;fontSize=10;" parent="1" vertex="1">
                    <mxGeometry x="1130" y="470" width="140" height="40" as="geometry"/>
                </mxCell>
                <mxCell id="171" value="&lt;font style=&quot;font-size: 30px&quot;&gt;V&lt;/font&gt;" style="rounded=0;whiteSpace=wrap;html=1;fontSize=10;" parent="1" vertex="1">
                    <mxGeometry x="1300" y="475" width="30" height="30" as="geometry"/>
                </mxCell>
                <mxCell id="173" value="&lt;font style=&quot;font-size: 16px&quot;&gt;Time Limit&lt;/font&gt;" style="text;html=1;strokeColor=none;fillColor=none;align=center;verticalAlign=middle;whiteSpace=wrap;rounded=0;fontSize=30;" parent="1" vertex="1">
                    <mxGeometry x="950" y="475" width="130" height="30" as="geometry"/>
                </mxCell>
                <mxCell id="174" value="&lt;font style=&quot;font-size: 16px&quot;&gt;No limit&lt;/font&gt;" style="text;html=1;strokeColor=none;fillColor=none;align=center;verticalAlign=middle;whiteSpace=wrap;rounded=0;fontSize=30;" parent="1" vertex="1">
                    <mxGeometry x="1265" y="440" width="100" height="30" as="geometry"/>
                </mxCell>
                <mxCell id="176" value="&lt;font style=&quot;font-size: 16px&quot;&gt;Approve Coming Guests&lt;/font&gt;" style="text;html=1;strokeColor=none;fillColor=none;align=center;verticalAlign=middle;whiteSpace=wrap;rounded=0;fontSize=30;" parent="1" vertex="1">
                    <mxGeometry x="950" y="555" width="190" height="30" as="geometry"/>
                </mxCell>
                <mxCell id="177" value="&lt;font style=&quot;font-size: 16px&quot;&gt;Yes/No&lt;/font&gt;" style="text;html=1;strokeColor=none;fillColor=none;align=center;verticalAlign=middle;whiteSpace=wrap;rounded=0;fontSize=30;" parent="1" vertex="1">
                    <mxGeometry x="1150" y="520" width="100" height="30" as="geometry"/>
                </mxCell>
                <mxCell id="178" value="&lt;font style=&quot;font-size: 30px&quot;&gt;V&lt;/font&gt;" style="rounded=0;whiteSpace=wrap;html=1;fontSize=10;" parent="1" vertex="1">
                    <mxGeometry x="1185" y="555" width="30" height="30" as="geometry"/>
                </mxCell>
                <mxCell id="180" value="Homework!" style="text;html=1;align=center;verticalAlign=middle;resizable=0;points=[];autosize=1;strokeColor=none;fillColor=none;fontSize=16;" parent="1" vertex="1">
                    <mxGeometry x="1110" y="370" width="100" height="20" as="geometry"/>
                </mxCell>
                <mxCell id="226" style="edgeStyle=none;html=1;fontSize=16;" parent="1" source="38" target="227" edge="1">
                    <mxGeometry relative="1" as="geometry">
                        <mxPoint x="1010" y="230" as="targetPoint"/>
                    </mxGeometry>
                </mxCell>
                <mxCell id="275" style="edgeStyle=orthogonalEdgeStyle;html=1;fontSize=16;" parent="1" source="227" target="277" edge="1">
                    <mxGeometry relative="1" as="geometry">
                        <Array as="points">
                            <mxPoint x="1180" y="111"/>
                        </Array>
                    </mxGeometry>
                </mxCell>
                <mxCell id="227" value="" style="rounded=0;whiteSpace=wrap;html=1;fontSize=16;" parent="1" vertex="1">
                    <mxGeometry x="1010" y="165" width="340" height="130" as="geometry"/>
                </mxCell>
                <mxCell id="228" value="Task Name*" style="text;html=1;align=center;verticalAlign=middle;resizable=0;points=[];autosize=1;strokeColor=none;fillColor=none;fontSize=16;" parent="1" vertex="1">
                    <mxGeometry x="1020" y="190" width="100" height="20" as="geometry"/>
                </mxCell>
                <mxCell id="229" value="URL" style="text;html=1;align=center;verticalAlign=middle;resizable=0;points=[];autosize=1;strokeColor=none;fillColor=none;fontSize=16;" parent="1" vertex="1">
                    <mxGeometry x="1030" y="220" width="50" height="20" as="geometry"/>
                </mxCell>
                <mxCell id="274" value="Start!" style="rounded=0;whiteSpace=wrap;html=1;fontSize=10;fillColor=#60a917;fontColor=#ffffff;strokeColor=#2D7600;" parent="1" vertex="1">
                    <mxGeometry x="1100" y="250" width="110" height="40" as="geometry"/>
                </mxCell>
            </root>
        </mxGraphModel>
    </diagram>
    <diagram id="KrxUO4XjxEc2zPH5_MDm" name="Architecture">
        <mxGraphModel dx="1742" dy="373" grid="1" gridSize="10" guides="1" tooltips="1" connect="1" arrows="1" fold="1" page="1" pageScale="1" pageWidth="850" pageHeight="1100" math="0" shadow="0">
            <root>
                <mxCell id="wDsvBJZRx8SuRtaAcM2x-0"/>
                <mxCell id="wDsvBJZRx8SuRtaAcM2x-1" parent="wDsvBJZRx8SuRtaAcM2x-0"/>
                <mxCell id="VxBCJWgQIvmOuGAG-skd-0" value="PokerPlanningContainer" style="swimlane;" parent="wDsvBJZRx8SuRtaAcM2x-1" vertex="1">
                    <mxGeometry x="70" y="100" width="570" height="360" as="geometry">
                        <mxRectangle x="260" y="440" width="90" height="23" as="alternateBounds"/>
                    </mxGeometry>
                </mxCell>
                <mxCell id="VxBCJWgQIvmOuGAG-skd-3" value="Initial Screen that use sees" style="text;html=1;align=center;verticalAlign=middle;resizable=0;points=[];autosize=1;strokeColor=none;fillColor=none;" parent="VxBCJWgQIvmOuGAG-skd-0" vertex="1">
                    <mxGeometry x="190" y="50" width="160" height="20" as="geometry"/>
                </mxCell>
                <mxCell id="VxBCJWgQIvmOuGAG-skd-18" style="html=1;entryX=0.75;entryY=0;entryDx=0;entryDy=0;" parent="VxBCJWgQIvmOuGAG-skd-0" target="VxBCJWgQIvmOuGAG-skd-17" edge="1">
                    <mxGeometry relative="1" as="geometry">
                        <mxPoint x="376.5" y="120" as="sourcePoint"/>
                    </mxGeometry>
                </mxCell>
                <mxCell id="VxBCJWgQIvmOuGAG-skd-17" value="PokerPlanningGameScreen" style="swimlane;" parent="VxBCJWgQIvmOuGAG-skd-0" vertex="1">
                    <mxGeometry x="10" y="160" width="550" height="170" as="geometry">
                        <mxRectangle x="260" y="440" width="90" height="23" as="alternateBounds"/>
                    </mxGeometry>
                </mxCell>
                <mxCell id="VxBCJWgQIvmOuGAG-skd-20" value="Players Counter" style="swimlane;startSize=23;" parent="VxBCJWgQIvmOuGAG-skd-17" vertex="1">
                    <mxGeometry x="20" y="70" width="230" height="20" as="geometry">
                        <mxRectangle x="260" y="440" width="90" height="23" as="alternateBounds"/>
                    </mxGeometry>
                </mxCell>
                <mxCell id="VxBCJWgQIvmOuGAG-skd-21" value="VotingPanel" style="swimlane;startSize=23;" parent="VxBCJWgQIvmOuGAG-skd-17" vertex="1">
                    <mxGeometry x="20" y="110" width="230" height="20" as="geometry">
                        <mxRectangle x="260" y="440" width="90" height="23" as="alternateBounds"/>
                    </mxGeometry>
                </mxCell>
                <mxCell id="VxBCJWgQIvmOuGAG-skd-22" value="Tmer" style="swimlane;startSize=23;" parent="VxBCJWgQIvmOuGAG-skd-17" vertex="1">
                    <mxGeometry x="270" y="70" width="130" height="20" as="geometry">
                        <mxRectangle x="260" y="440" width="90" height="23" as="alternateBounds"/>
                    </mxGeometry>
                </mxCell>
                <mxCell id="VxBCJWgQIvmOuGAG-skd-27" value="Total Points" style="swimlane;startSize=23;" parent="VxBCJWgQIvmOuGAG-skd-17" vertex="1">
                    <mxGeometry x="270" y="110" width="130" height="20" as="geometry">
                        <mxRectangle x="260" y="440" width="90" height="23" as="alternateBounds"/>
                    </mxGeometry>
                </mxCell>
                <mxCell id="VxBCJWgQIvmOuGAG-skd-28" value="Moderator Panel" style="swimlane;startSize=23;" parent="VxBCJWgQIvmOuGAG-skd-17" vertex="1">
                    <mxGeometry x="410" y="90" width="130" height="20" as="geometry">
                        <mxRectangle x="260" y="440" width="90" height="23" as="alternateBounds"/>
                    </mxGeometry>
                </mxCell>
                <mxCell id="VxBCJWgQIvmOuGAG-skd-19" value="Join Game Screen" style="text;html=1;align=center;verticalAlign=middle;resizable=0;points=[];autosize=1;strokeColor=none;fillColor=none;" parent="VxBCJWgQIvmOuGAG-skd-0" vertex="1">
                    <mxGeometry x="300" y="100" width="110" height="20" as="geometry"/>
                </mxCell>
                <mxCell id="VxBCJWgQIvmOuGAG-skd-4" value="Start the game&amp;nbsp;" style="edgeStyle=orthogonalEdgeStyle;html=1;" parent="wDsvBJZRx8SuRtaAcM2x-1" source="VxBCJWgQIvmOuGAG-skd-3" edge="1">
                    <mxGeometry x="0.1111" relative="1" as="geometry">
                        <mxPoint x="260" y="260" as="targetPoint"/>
                        <Array as="points">
                            <mxPoint x="260" y="240"/>
                            <mxPoint x="260" y="240"/>
                        </Array>
                        <mxPoint as="offset"/>
                    </mxGeometry>
                </mxCell>
                <mxCell id="VxBCJWgQIvmOuGAG-skd-5" value="Join the game" style="edgeStyle=none;html=1;" parent="wDsvBJZRx8SuRtaAcM2x-1" source="VxBCJWgQIvmOuGAG-skd-3" edge="1">
                    <mxGeometry relative="1" as="geometry">
                        <mxPoint x="410" y="200" as="targetPoint"/>
                    </mxGeometry>
                </mxCell>
                <mxCell id="VxBCJWgQIvmOuGAG-skd-30" style="edgeStyle=none;html=1;" parent="wDsvBJZRx8SuRtaAcM2x-1" source="VxBCJWgQIvmOuGAG-skd-29" edge="1">
                    <mxGeometry relative="1" as="geometry">
                        <mxPoint x="320" y="305" as="targetPoint"/>
                    </mxGeometry>
                </mxCell>
                <mxCell id="VxBCJWgQIvmOuGAG-skd-29" value="All the logic here" style="text;html=1;strokeColor=none;fillColor=none;align=center;verticalAlign=middle;whiteSpace=wrap;rounded=0;" parent="wDsvBJZRx8SuRtaAcM2x-1" vertex="1">
                    <mxGeometry x="-50" y="290" width="110" height="30" as="geometry"/>
                </mxCell>
                <mxCell id="VxBCJWgQIvmOuGAG-skd-33" style="edgeStyle=none;html=1;" parent="wDsvBJZRx8SuRtaAcM2x-1" source="VxBCJWgQIvmOuGAG-skd-31" target="VxBCJWgQIvmOuGAG-skd-21" edge="1">
                    <mxGeometry relative="1" as="geometry"/>
                </mxCell>
                <mxCell id="VxBCJWgQIvmOuGAG-skd-31" value="Children just communicate their states" style="text;html=1;strokeColor=none;fillColor=none;align=center;verticalAlign=middle;whiteSpace=wrap;rounded=0;" parent="wDsvBJZRx8SuRtaAcM2x-1" vertex="1">
                    <mxGeometry x="-100" y="360" width="160" height="30" as="geometry"/>
                </mxCell>
            </root>
        </mxGraphModel>
    </diagram>
</mxfile>